<?xml version="1.0" standalone="no"?>
<!DOCTYPE svg PUBLIC "-//W3C//DTD SVG 20010904//EN"
 "http://www.w3.org/TR/2001/REC-SVG-20010904/DTD/svg10.dtd">
<svg version="1.0" xmlns="http://www.w3.org/2000/svg"
 width="422.000000pt" height="422.000000pt" viewBox="0 0 422.000000 422.000000"
 preserveAspectRatio="xMidYMid meet">
<metadata>
Created by potrace 1.11, written by Peter Selinger 2001-2013
</metadata>
<g transform="translate(0.000000,422.000000) scale(0.100000,-0.100000)"
fill="#000000" stroke="none">
<path d="M1851 4131 c-60 -8 -91 -35 -91 -80 0 -25 31 -71 48 -71 4 0 8 -27
10 -60 l3 -60 -53 0 c-297 -1 -573 -119 -694 -299 -47 -70 -92 -168 -100 -220
-6 -35 -10 -41 -31 -41 -31 0 -53 -49 -53 -118 0 -56 17 -84 51 -86 23 -1 24
-6 32 -81 9 -101 26 -160 77 -270 86 -187 257 -381 432 -491 51 -32 94 -59 96
-60 2 -1 -21 -63 -50 -139 l-53 -136 -75 -25 c-92 -31 -133 -56 -148 -89 -18
-39 6 -76 72 -111 46 -24 55 -33 50 -49 -7 -23 -75 -208 -139 -375 -24 -63
-61 -160 -80 -215 -39 -106 -88 -239 -175 -470 -29 -77 -69 -187 -90 -245 -21
-58 -41 -113 -45 -123 -7 -16 -2 -18 61 -15 l69 3 53 135 54 135 226 -1 c125
-1 498 -2 829 -3 l601 -1 12 -49 c34 -144 163 -239 307 -229 109 8 203 70 255
170 30 58 32 186 4 238 -57 107 -146 168 -259 179 l-61 6 -49 140 c-27 77 -73
208 -102 290 -29 83 -77 221 -107 307 l-55 157 23 5 c13 4 39 20 59 37 42 37
46 75 12 107 -24 22 -128 72 -152 72 -21 0 -41 45 -95 213 l-18 58 48 24 c137
69 301 218 405 366 111 158 161 292 181 482 4 39 10 57 19 57 25 0 38 40 32
102 -5 54 -19 89 -35 86 -22 -2 -31 6 -36 37 -4 20 -27 75 -52 124 -79 154
-199 256 -387 329 -102 40 -231 72 -291 72 -67 0 -71 5 -68 70 3 43 8 60 17
60 23 0 55 42 55 71 0 45 -30 71 -91 80 -64 9 -381 9 -458 0z m339 -165 c0 -7
3 -34 6 -60 l7 -46 -129 0 -129 0 3 60 4 60 119 0 c94 0 119 -3 119 -14z
m-413 -1842 c31 -9 88 -19 127 -23 l71 -6 3 -66 3 -66 -143 -7 c-79 -4 -162
-9 -185 -12 l-41 -6 32 94 c39 112 44 121 62 114 8 -3 40 -13 71 -22z m650
-85 c18 -46 32 -89 32 -95 1 -7 -22 -8 -71 -3 -40 4 -121 10 -180 14 l-108 7
0 64 c0 48 3 64 14 64 42 0 220 22 239 30 12 5 27 7 32 6 6 -1 24 -41 42 -87z
m202 -576 c35 -98 76 -214 92 -258 105 -295 159 -450 158 -460 0 -5 -19 -25
-41 -44 l-39 -35 -202 100 c-111 54 -219 109 -241 120 l-38 22 -2 78 c-1 60
-7 89 -24 122 -34 64 -85 115 -141 142 l-51 23 0 153 0 153 43 5 c23 3 85 8
137 11 52 3 136 14 185 24 50 10 93 19 96 20 3 0 34 -79 68 -176z m-959 142
c58 -8 128 -15 155 -15 28 0 74 -3 103 -6 l52 -7 0 -146 0 -147 -57 -19 c-121
-41 -211 -174 -200 -295 3 -30 8 -62 11 -70 5 -11 -18 -25 -96 -57 -57 -23
-173 -72 -258 -108 -210 -90 -250 -105 -250 -100 0 4 85 235 160 435 46 122
159 431 186 508 19 54 19 54 54 48 19 -4 82 -13 140 -21z m633 -816 c-15 -4
-36 -7 -46 -8 -16 -1 -16 1 -1 24 16 24 17 25 46 7 l29 -17 -28 -6z m-473 -26
c41 -31 47 -39 33 -45 -10 -4 -108 -23 -218 -42 -257 -44 -285 -49 -285 -43 0
2 21 12 48 22 26 10 103 41 172 70 121 51 177 73 192 74 4 1 30 -16 58 -36z
m680 -58 l45 -24 -190 1 -190 0 125 23 c158 29 156 29 210 0z m220 -115 l35
-20 -602 2 c-332 1 -600 4 -597 7 20 21 192 28 639 29 469 1 492 0 525 -18z"/>
</g>
</svg>
